# xmcd CD database file
#
# Track frame offsets:
#	187
#	23962
#	46917
#	68719
#	91394
#	109952
#	132954
#	154064
#	173187
#	191857
#
# Disc length: 2849 seconds
#
# Revision: 0
# Processed by: cddbd v1.5.1PL0 Copyright (c) Steve Scherf et al.
# Submitted via: CDex 1.51
#
DISCID=870b1f0a
DTITLE=kotone - day too
DYEAR=1996
DGENRE=JPop
TTITLE0=Fall in Blue
TTITLE1=両手の中で
TTITLE2=夢と君にありがとう
TTITLE3=種を蒔く季節
TTITLE4=BABY, MY SUNSHINE LOVE
TTITLE5=天国に行こう
TTITLE6=夢見るNo.1
TTITLE7=Ting Ting Ting
TTITLE8=P・L・A・Z・A
TTITLE9=夢と君にありがとう(Jazzwad Lover's mix)
EXTD=YEAR: 1996
EXTT0=
EXTT1=
EXTT2=
EXTT3=
EXTT4=
EXTT5=
EXTT6=
EXTT7=
EXTT8=
EXTT9=
PLAYORDER=
